<?xml version="1.0" encoding="UTF-8" standalone="no"?>
<!DOCTYPE svg PUBLIC "-//W3C//DTD SVG 1.1//EN"
 "http://www.w3.org/Graphics/SVG/1.1/DTD/svg11.dtd">
<!-- Generated by graphviz version 2.47.0 (20210316.0004)
 -->
<!-- Title: dependencies Pages: 1 -->
<svg width="2009pt" height="366pt"
 viewBox="0.00 0.00 2009.00 366.00" xmlns="http://www.w3.org/2000/svg" xmlns:xlink="http://www.w3.org/1999/xlink">
<g id="graph0" class="graph" transform="scale(1 1) rotate(0) translate(4 362)">
<title>dependencies</title>
<polygon fill="white" stroke="transparent" points="-4,4 -4,-362 2005,-362 2005,4 -4,4"/>
<text text-anchor="start" x="979.51" y="-42.4" font-family="Times-12" font-weight="bold" font-size="14.00">Legend</text>
<polygon fill="#ffffb3" stroke="transparent" points="766.5,-10 766.5,-30 786.5,-30 786.5,-10 766.5,-10"/>
<text text-anchor="start" x="790.13" y="-15.4" font-family="Times-12" font-size="14.00"> &#160;Declarations</text>
<polygon fill="#8dd3c7" stroke="transparent" points="879.5,-10 879.5,-30 899.5,-30 899.5,-10 879.5,-10"/>
<text text-anchor="start" x="903.23" y="-15.4" font-family="Times-12" font-size="14.00"> &#160;Module</text>
<polygon fill="#80b1d3" stroke="transparent" points="965.5,-10 965.5,-30 985.5,-30 985.5,-10 965.5,-10"/>
<text text-anchor="start" x="989.28" y="-15.4" font-family="Times-12" font-size="14.00"> &#160;Bootstrap</text>
<polygon fill="#fdb462" stroke="transparent" points="1062.5,-10 1062.5,-30 1082.5,-30 1082.5,-10 1062.5,-10"/>
<text text-anchor="start" x="1086.17" y="-15.4" font-family="Times-12" font-size="14.00"> &#160;Providers</text>
<polygon fill="#fb8072" stroke="transparent" points="1158.5,-10 1158.5,-30 1178.5,-30 1178.5,-10 1158.5,-10"/>
<text text-anchor="start" x="1182.23" y="-15.4" font-family="Times-12" font-size="14.00"> &#160;Exports</text>
<g id="clust1" class="cluster">
<title>cluster_AdminModule</title>
<polygon fill="none" stroke="black" stroke-dasharray="1,5" points="8,-70 8,-198 328,-198 328,-70 8,-70"/>
</g>
<g id="clust2" class="cluster">
<title>cluster_AdminModule_declarations</title>
<polygon fill="none" stroke="black" points="184,-78 184,-130 320,-130 320,-78 184,-78"/>
</g>
<g id="clust4" class="cluster">
<title>cluster_AdminModule_imports</title>
<polygon fill="none" stroke="black" points="16,-78 16,-130 176,-130 176,-78 16,-78"/>
</g>
<g id="clust14" class="cluster">
<title>cluster_AppModule</title>
<polygon fill="none" stroke="black" stroke-dasharray="1,5" points="336,-70 336,-350 775,-350 775,-70 336,-70"/>
</g>
<g id="clust15" class="cluster">
<title>cluster_AppModule_declarations</title>
<polygon fill="none" stroke="black" points="376,-146 376,-198 498,-198 498,-146 376,-146"/>
</g>
<g id="clust17" class="cluster">
<title>cluster_AppModule_imports</title>
<polygon fill="none" stroke="black" points="506,-78 506,-198 767,-198 767,-78 506,-78"/>
</g>
<g id="clust19" class="cluster">
<title>cluster_AppModule_bootstrap</title>
<polygon fill="none" stroke="black" points="359,-290 359,-342 483,-342 483,-290 359,-290"/>
</g>
<g id="clust27" class="cluster">
<title>cluster_BooksModule</title>
<polygon fill="none" stroke="black" stroke-dasharray="1,5" points="783,-214 783,-282 1993,-282 1993,-214 783,-214"/>
</g>
<g id="clust28" class="cluster">
<title>cluster_BooksModule_declarations</title>
<polygon fill="none" stroke="black" points="1399,-222 1399,-274 1985,-274 1985,-222 1399,-222"/>
</g>
<g id="clust34" class="cluster">
<title>cluster_BooksModule_exports</title>
<polygon fill="none" stroke="black" points="791,-222 791,-274 1391,-274 1391,-222 791,-222"/>
</g>
<g id="clust37" class="cluster">
<title>cluster_SharedModule</title>
<polygon fill="none" stroke="black" stroke-dasharray="1,5" points="783,-138 783,-206 1714,-206 1714,-138 783,-138"/>
</g>
<g id="clust38" class="cluster">
<title>cluster_SharedModule_declarations</title>
<polygon fill="none" stroke="black" points="1258,-146 1258,-198 1706,-198 1706,-146 1258,-146"/>
</g>
<g id="clust43" class="cluster">
<title>cluster_SharedModule_exports</title>
<polygon fill="none" stroke="black" points="791,-146 791,-198 1250,-198 1250,-146 791,-146"/>
</g>
<!-- AdminComponent -->
<g id="node1" class="node">
<title>AdminComponent</title>
<polygon fill="#ffffb3" stroke="black" points="312.22,-122 191.78,-122 191.78,-86 312.22,-86 312.22,-122"/>
<text text-anchor="middle" x="252" y="-99.8" font-family="Times,serif" font-size="14.00">AdminComponent</text>
</g>
<!-- AdminModule -->
<g id="node2" class="node">
<title>AdminModule</title>
<polygon fill="#8dd3c7" stroke="black" points="223.44,-190 220.44,-194 199.44,-194 196.44,-190 124.56,-190 124.56,-154 223.44,-154 223.44,-190"/>
<text text-anchor="middle" x="174" y="-167.8" font-family="Times,serif" font-size="14.00">AdminModule</text>
</g>
<!-- AdminComponent&#45;&gt;AdminModule -->
<g id="edge1" class="edge">
<title>AdminComponent&#45;&gt;AdminModule</title>
<path fill="none" stroke="black" d="M207.55,-122.22C207.55,-122.22 207.55,-143.73 207.55,-143.73"/>
<polygon fill="black" stroke="black" points="204.05,-143.73 207.55,-153.73 211.05,-143.73 204.05,-143.73"/>
</g>
<!-- AdminRoutingModule -->
<g id="node3" class="node">
<title>AdminRoutingModule</title>
<polygon fill="#8dd3c7" stroke="black" points="167.56,-122 164.56,-126 143.56,-126 140.56,-122 24.44,-122 24.44,-86 167.56,-86 167.56,-122"/>
<text text-anchor="middle" x="96" y="-99.8" font-family="Times,serif" font-size="14.00">AdminRoutingModule</text>
</g>
<!-- AdminRoutingModule&#45;&gt;AdminModule -->
<g id="edge2" class="edge">
<title>AdminRoutingModule&#45;&gt;AdminModule</title>
<path fill="none" stroke="black" d="M146.28,-122.22C146.28,-122.22 146.28,-143.73 146.28,-143.73"/>
<polygon fill="black" stroke="black" points="142.78,-143.73 146.28,-153.73 149.78,-143.73 142.78,-143.73"/>
</g>
<!-- AppComponent -->
<g id="node4" class="node">
<title>AppComponent</title>
<polygon fill="#ffffb3" stroke="black" points="489.94,-190 384.06,-190 384.06,-154 489.94,-154 489.94,-190"/>
<text text-anchor="middle" x="437" y="-167.8" font-family="Times,serif" font-size="14.00">AppComponent</text>
</g>
<!-- AppModule -->
<g id="node5" class="node">
<title>AppModule</title>
<polygon fill="#8dd3c7" stroke="black" points="462.66,-266 459.66,-270 438.66,-270 435.66,-266 379.34,-266 379.34,-230 462.66,-230 462.66,-266"/>
<text text-anchor="middle" x="421" y="-243.8" font-family="Times,serif" font-size="14.00">AppModule</text>
</g>
<!-- AppComponent&#45;&gt;AppModule -->
<g id="edge3" class="edge">
<title>AppComponent&#45;&gt;AppModule</title>
<path fill="none" stroke="black" d="M423.55,-190.01C423.55,-190.01 423.55,-219.85 423.55,-219.85"/>
<polygon fill="black" stroke="black" points="420.05,-219.85 423.55,-229.85 427.05,-219.85 420.05,-219.85"/>
</g>
<!-- AppComponent  -->
<g id="node9" class="node">
<title>AppComponent </title>
<polygon fill="#80b1d3" stroke="black" points="475.44,-334 366.56,-334 366.56,-298 475.44,-298 475.44,-334"/>
<text text-anchor="middle" x="421" y="-311.8" font-family="Times,serif" font-size="14.00">AppComponent </text>
</g>
<!-- AppModule&#45;&gt;AppComponent  -->
<g id="edge7" class="edge">
<title>AppModule&#45;&gt;AppComponent </title>
<path fill="none" stroke="black" stroke-dasharray="1,5" d="M421,-266.22C421,-266.22 421,-287.73 421,-287.73"/>
<polygon fill="black" stroke="black" points="417.5,-287.73 421,-297.73 424.5,-287.73 417.5,-287.73"/>
</g>
<!-- AppRoutingModule -->
<g id="node6" class="node">
<title>AppRoutingModule</title>
<polygon fill="#8dd3c7" stroke="black" points="642.27,-122 639.27,-126 618.27,-126 615.27,-122 513.73,-122 513.73,-86 642.27,-86 642.27,-122"/>
<text text-anchor="middle" x="578" y="-99.8" font-family="Times,serif" font-size="14.00">AppRoutingModule</text>
</g>
<!-- AppRoutingModule&#45;&gt;AppModule -->
<g id="edge4" class="edge">
<title>AppRoutingModule&#45;&gt;AppModule</title>
<path fill="none" stroke="black" d="M578,-122.07C578,-158.65 578,-238 578,-238 578,-238 472.66,-238 472.66,-238"/>
<polygon fill="black" stroke="black" points="472.66,-234.5 462.66,-238 472.66,-241.5 472.66,-234.5"/>
</g>
<!-- BooksModule -->
<g id="node7" class="node">
<title>BooksModule</title>
<polygon fill="#8dd3c7" stroke="black" points="758.83,-190 755.83,-194 734.83,-194 731.83,-190 663.17,-190 663.17,-154 758.83,-154 758.83,-190"/>
<text text-anchor="middle" x="711" y="-167.8" font-family="Times,serif" font-size="14.00">BooksModule</text>
</g>
<!-- BooksModule&#45;&gt;AppModule -->
<g id="edge5" class="edge">
<title>BooksModule&#45;&gt;AppModule</title>
<path fill="none" stroke="black" d="M739.6,-190.15C739.6,-213.76 739.6,-252 739.6,-252 739.6,-252 472.98,-252 472.98,-252"/>
<polygon fill="black" stroke="black" points="472.98,-248.5 462.98,-252 472.98,-255.5 472.98,-248.5"/>
</g>
<!-- BookDetailComponent  -->
<g id="node14" class="node">
<title>BookDetailComponent </title>
<polygon fill="#fb8072" stroke="black" points="1382.88,-266 1233.12,-266 1233.12,-230 1382.88,-230 1382.88,-266"/>
<text text-anchor="middle" x="1308" y="-243.8" font-family="Times,serif" font-size="14.00">BookDetailComponent </text>
</g>
<!-- BooksModule&#45;&gt;BookDetailComponent  -->
<g id="edge13" class="edge">
<title>BooksModule&#45;&gt;BookDetailComponent </title>
<path fill="none" stroke="black" stroke-dasharray="5,2" d="M730.07,-190.49C730.07,-202.14 730.07,-215 730.07,-215 730.07,-215 1237.44,-215 1237.44,-215 1237.44,-215 1237.44,-219.96 1237.44,-219.96"/>
<polygon fill="black" stroke="black" points="1233.94,-219.96 1237.44,-229.96 1240.94,-219.96 1233.94,-219.96"/>
</g>
<!-- BookFilterPipe  -->
<g id="node15" class="node">
<title>BookFilterPipe </title>
<polygon fill="#fb8072" stroke="black" points="1215.55,-266 1110.45,-266 1110.45,-230 1215.55,-230 1215.55,-266"/>
<text text-anchor="middle" x="1163" y="-243.8" font-family="Times,serif" font-size="14.00">BookFilterPipe </text>
</g>
<!-- BooksModule&#45;&gt;BookFilterPipe  -->
<g id="edge14" class="edge">
<title>BooksModule&#45;&gt;BookFilterPipe </title>
<path fill="none" stroke="black" stroke-dasharray="5,2" d="M720.53,-190.15C720.53,-203.74 720.53,-220 720.53,-220 720.53,-220 1163,-220 1163,-220 1163,-220 1163,-220.98 1163,-220.98"/>
<polygon fill="black" stroke="black" points="1159.5,-219.79 1163,-229.79 1166.5,-219.79 1159.5,-219.79"/>
</g>
<!-- BookListComponent  -->
<g id="node16" class="node">
<title>BookListComponent </title>
<polygon fill="#fb8072" stroke="black" points="1092.45,-266 955.55,-266 955.55,-230 1092.45,-230 1092.45,-266"/>
<text text-anchor="middle" x="1024" y="-243.8" font-family="Times,serif" font-size="14.00">BookListComponent </text>
</g>
<!-- BooksModule&#45;&gt;BookListComponent  -->
<g id="edge15" class="edge">
<title>BooksModule&#45;&gt;BookListComponent </title>
<path fill="none" stroke="black" stroke-dasharray="5,2" d="M711,-190.24C711,-205.57 711,-225 711,-225 711,-225 1018.17,-225 1018.17,-225 1018.17,-225 1018.17,-225.49 1018.17,-225.49"/>
<polygon fill="black" stroke="black" points="1014.67,-219.88 1018.17,-229.88 1021.67,-219.88 1014.67,-219.88"/>
</g>
<!-- WelcomeComponent  -->
<g id="node17" class="node">
<title>WelcomeComponent </title>
<polygon fill="#fb8072" stroke="black" points="937.47,-266 798.53,-266 798.53,-230 937.47,-230 937.47,-266"/>
<text text-anchor="middle" x="868" y="-243.8" font-family="Times,serif" font-size="14.00">WelcomeComponent </text>
</g>
<!-- BooksModule&#45;&gt;WelcomeComponent  -->
<g id="edge16" class="edge">
<title>BooksModule&#45;&gt;WelcomeComponent </title>
<path fill="none" stroke="black" stroke-dasharray="5,2" d="M749.13,-190.03C749.13,-215.51 749.13,-259 749.13,-259 749.13,-259 788.51,-259 788.51,-259"/>
<polygon fill="black" stroke="black" points="788.51,-262.5 798.51,-259 788.51,-255.5 788.51,-262.5"/>
</g>
<!-- SharedModule -->
<g id="node8" class="node">
<title>SharedModule</title>
<polygon fill="#8dd3c7" stroke="black" points="759.42,-122 756.42,-126 735.42,-126 732.42,-122 660.58,-122 660.58,-86 759.42,-86 759.42,-122"/>
<text text-anchor="middle" x="710" y="-99.8" font-family="Times,serif" font-size="14.00">SharedModule</text>
</g>
<!-- SharedModule&#45;&gt;AppModule -->
<g id="edge6" class="edge">
<title>SharedModule&#45;&gt;AppModule</title>
<path fill="none" stroke="black" d="M660.71,-104C655.24,-104 651.59,-104 651.59,-104 651.59,-104 651.59,-245 651.59,-245 651.59,-245 472.76,-245 472.76,-245"/>
<polygon fill="black" stroke="black" points="472.76,-241.5 462.76,-245 472.76,-248.5 472.76,-241.5"/>
</g>
<!-- SharedModule&#45;&gt;BooksModule -->
<g id="edge12" class="edge">
<title>SharedModule&#45;&gt;BooksModule</title>
<path fill="none" stroke="black" d="M711,-122.22C711,-122.22 711,-143.73 711,-143.73"/>
<polygon fill="black" stroke="black" points="707.5,-143.73 711,-153.73 714.5,-143.73 707.5,-143.73"/>
</g>
<!-- CalculatorComponent  -->
<g id="node21" class="node">
<title>CalculatorComponent </title>
<polygon fill="#fb8072" stroke="black" points="1241.65,-190 1098.35,-190 1098.35,-154 1241.65,-154 1241.65,-190"/>
<text text-anchor="middle" x="1170" y="-167.8" font-family="Times,serif" font-size="14.00">CalculatorComponent </text>
</g>
<!-- SharedModule&#45;&gt;CalculatorComponent  -->
<g id="edge20" class="edge">
<title>SharedModule&#45;&gt;CalculatorComponent </title>
<path fill="none" stroke="black" stroke-dasharray="5,2" d="M759.23,-107C877.9,-107 1170,-107 1170,-107 1170,-107 1170,-143.89 1170,-143.89"/>
<polygon fill="black" stroke="black" points="1166.5,-143.89 1170,-153.89 1173.5,-143.89 1166.5,-143.89"/>
</g>
<!-- NotFoundComponent  -->
<g id="node22" class="node">
<title>NotFoundComponent </title>
<polygon fill="#fb8072" stroke="black" points="1080.61,-190 939.39,-190 939.39,-154 1080.61,-154 1080.61,-190"/>
<text text-anchor="middle" x="1010" y="-167.8" font-family="Times,serif" font-size="14.00">NotFoundComponent </text>
</g>
<!-- SharedModule&#45;&gt;NotFoundComponent  -->
<g id="edge21" class="edge">
<title>SharedModule&#45;&gt;NotFoundComponent </title>
<path fill="none" stroke="black" stroke-dasharray="5,2" d="M759.54,-112C844.75,-112 1010,-112 1010,-112 1010,-112 1010,-144 1010,-144"/>
<polygon fill="black" stroke="black" points="1006.5,-144 1010,-154 1013.5,-144 1006.5,-144"/>
</g>
<!-- RatingComponent  -->
<g id="node23" class="node">
<title>RatingComponent </title>
<polygon fill="#fb8072" stroke="black" points="921.16,-190 798.84,-190 798.84,-154 921.16,-154 921.16,-190"/>
<text text-anchor="middle" x="860" y="-167.8" font-family="Times,serif" font-size="14.00">RatingComponent </text>
</g>
<!-- SharedModule&#45;&gt;RatingComponent  -->
<g id="edge22" class="edge">
<title>SharedModule&#45;&gt;RatingComponent </title>
<path fill="none" stroke="black" stroke-dasharray="5,2" d="M759.53,-117C803.22,-117 860,-117 860,-117 860,-117 860,-143.99 860,-143.99"/>
<polygon fill="black" stroke="black" points="856.5,-143.99 860,-153.99 863.5,-143.99 856.5,-143.99"/>
</g>
<!-- BookDetailComponent -->
<g id="node10" class="node">
<title>BookDetailComponent</title>
<polygon fill="#ffffb3" stroke="black" points="1976.88,-266 1831.12,-266 1831.12,-230 1976.88,-230 1976.88,-266"/>
<text text-anchor="middle" x="1904" y="-243.8" font-family="Times,serif" font-size="14.00">BookDetailComponent</text>
</g>
<!-- BookDetailComponent&#45;&gt;BooksModule -->
<g id="edge8" class="edge">
<title>BookDetailComponent&#45;&gt;BooksModule</title>
<path fill="none" stroke="black" d="M1904,-229.76C1904,-214.43 1904,-195 1904,-195 1904,-195 701.47,-195 701.47,-195 701.47,-195 701.47,-194.51 701.47,-194.51"/>
<polygon fill="black" stroke="black" points="704.97,-200.12 701.47,-190.12 697.97,-200.12 704.97,-200.12"/>
</g>
<!-- BookFilterPipe -->
<g id="node11" class="node">
<title>BookFilterPipe</title>
<polygon fill="#ffffb3" stroke="black" points="1812.55,-266 1711.45,-266 1711.45,-230 1812.55,-230 1812.55,-266"/>
<text text-anchor="middle" x="1762" y="-243.8" font-family="Times,serif" font-size="14.00">BookFilterPipe</text>
</g>
<!-- BookFilterPipe&#45;&gt;BooksModule -->
<g id="edge9" class="edge">
<title>BookFilterPipe&#45;&gt;BooksModule</title>
<path fill="none" stroke="black" d="M1762,-229.85C1762,-216.26 1762,-200 1762,-200 1762,-200 691.93,-200 691.93,-200 691.93,-200 691.93,-199.02 691.93,-199.02"/>
<polygon fill="black" stroke="black" points="695.43,-200.21 691.93,-190.21 688.43,-200.21 695.43,-200.21"/>
</g>
<!-- BookListComponent -->
<g id="node12" class="node">
<title>BookListComponent</title>
<polygon fill="#ffffb3" stroke="black" points="1692.95,-266 1559.05,-266 1559.05,-230 1692.95,-230 1692.95,-266"/>
<text text-anchor="middle" x="1626" y="-243.8" font-family="Times,serif" font-size="14.00">BookListComponent</text>
</g>
<!-- BookListComponent&#45;&gt;BooksModule -->
<g id="edge10" class="edge">
<title>BookListComponent&#45;&gt;BooksModule</title>
<path fill="none" stroke="black" d="M1626,-229.51C1626,-217.86 1626,-205 1626,-205 1626,-205 682.4,-205 682.4,-205 682.4,-205 682.4,-200.04 682.4,-200.04"/>
<polygon fill="black" stroke="black" points="685.9,-200.04 682.4,-190.04 678.9,-200.04 685.9,-200.04"/>
</g>
<!-- WelcomeComponent -->
<g id="node13" class="node">
<title>WelcomeComponent</title>
<polygon fill="#ffffb3" stroke="black" points="1541.47,-266 1406.53,-266 1406.53,-230 1541.47,-230 1541.47,-266"/>
<text text-anchor="middle" x="1474" y="-243.8" font-family="Times,serif" font-size="14.00">WelcomeComponent</text>
</g>
<!-- WelcomeComponent&#45;&gt;BooksModule -->
<g id="edge11" class="edge">
<title>WelcomeComponent&#45;&gt;BooksModule</title>
<path fill="none" stroke="black" d="M1473.29,-229.89C1473.29,-220.1 1473.29,-210 1473.29,-210 1473.29,-210 672.87,-210 672.87,-210 672.87,-210 672.87,-200.11 672.87,-200.11"/>
<polygon fill="black" stroke="black" points="676.37,-200.11 672.87,-190.11 669.37,-200.11 676.37,-200.11"/>
</g>
<!-- CalculatorComponent -->
<g id="node18" class="node">
<title>CalculatorComponent</title>
<polygon fill="#ffffb3" stroke="black" points="1697.65,-190 1558.35,-190 1558.35,-154 1697.65,-154 1697.65,-190"/>
<text text-anchor="middle" x="1628" y="-167.8" font-family="Times,serif" font-size="14.00">CalculatorComponent</text>
</g>
<!-- CalculatorComponent&#45;&gt;SharedModule -->
<g id="edge17" class="edge">
<title>CalculatorComponent&#45;&gt;SharedModule</title>
<path fill="none" stroke="black" d="M1628,-153.85C1628,-130.24 1628,-92 1628,-92 1628,-92 769.36,-92 769.36,-92"/>
<polygon fill="black" stroke="black" points="769.36,-88.5 759.36,-92 769.36,-95.5 769.36,-88.5"/>
</g>
<!-- NotFoundComponent -->
<g id="node19" class="node">
<title>NotFoundComponent</title>
<polygon fill="#ffffb3" stroke="black" points="1540.11,-190 1401.89,-190 1401.89,-154 1540.11,-154 1540.11,-190"/>
<text text-anchor="middle" x="1471" y="-167.8" font-family="Times,serif" font-size="14.00">NotFoundComponent</text>
</g>
<!-- NotFoundComponent&#45;&gt;SharedModule -->
<g id="edge18" class="edge">
<title>NotFoundComponent&#45;&gt;SharedModule</title>
<path fill="none" stroke="black" d="M1471,-153.84C1471,-131.65 1471,-97 1471,-97 1471,-97 769.34,-97 769.34,-97"/>
<polygon fill="black" stroke="black" points="769.35,-93.5 759.34,-97 769.34,-100.5 769.35,-93.5"/>
</g>
<!-- RatingComponent -->
<g id="node20" class="node">
<title>RatingComponent</title>
<polygon fill="#ffffb3" stroke="black" points="1384.17,-190 1265.83,-190 1265.83,-154 1384.17,-154 1384.17,-190"/>
<text text-anchor="middle" x="1325" y="-167.8" font-family="Times,serif" font-size="14.00">RatingComponent</text>
</g>
<!-- RatingComponent&#45;&gt;SharedModule -->
<g id="edge19" class="edge">
<title>RatingComponent&#45;&gt;SharedModule</title>
<path fill="none" stroke="black" d="M1325,-153.97C1325,-133.23 1325,-102 1325,-102 1325,-102 769.29,-102 769.29,-102"/>
<polygon fill="black" stroke="black" points="769.29,-98.5 759.29,-102 769.29,-105.5 769.29,-98.5"/>
</g>
</g>
</svg>
